<?xml version="1.0" encoding="utf-8"?>
<svg width="447.58pt" height="425.2pt" viewBox="0 0 447.58 425.2" version="1.1" xmlns="http://www.w3.org/2000/svg">
  <defs>
    <clipPath id="clip1">
      <path d="M 0 0 L 447.578125 0 L 447.578125 362 L 0 362 Z M 0 0 "/>
    </clipPath>
    <clipPath id="clip2">
      <path d="M 27 398 L 57 398 L 57 425.199219 L 27 425.199219 Z M 27 398 "/>
    </clipPath>
    <clipPath id="clip3">
      <path d="M 59 398 L 87 398 L 87 425.199219 L 59 425.199219 Z M 59 398 "/>
    </clipPath>
    <clipPath id="clip4">
      <path d="M 264 398 L 282 398 L 282 425.199219 L 264 425.199219 Z M 264 398 "/>
    </clipPath>
    <clipPath id="clip5">
      <path d="M 284 398 L 312 398 L 312 425.199219 L 284 425.199219 Z M 284 398 "/>
    </clipPath>
    <clipPath id="clip6">
      <path d="M 330 398 L 348 398 L 348 425.199219 L 330 425.199219 Z M 330 398 "/>
    </clipPath>
    <clipPath id="clip7">
      <path d="M 350 398 L 368 398 L 368 425.199219 L 350 425.199219 Z M 350 398 "/>
    </clipPath>
    <clipPath id="clip8">
      <path d="M 370 398 L 400 398 L 400 425.199219 L 370 425.199219 Z M 370 398 "/>
    </clipPath>
    <clipPath id="clip9">
      <path d="M 430 398 L 447.578125 398 L 447.578125 425.199219 L 430 425.199219 Z M 430 398 "/>
    </clipPath>
  </defs>
  <g id="surface1" transform="matrix(0.95234, 0, 0, 0.965937, 12.798949, 36.499954)" style="">
    <g clip-path="url(#clip1)" clip-rule="nonzero">
      <path style=" stroke:none;fill-rule:nonzero;fill:rgb(13.699341%,12.199402%,12.5%);fill-opacity:1;" d="M 281.453125 285.121094 C 281.472656 285.449219 281.484375 285.765625 281.484375 286.097656 L 281.484375 312.382813 C 281.484375 336.730469 248.550781 343.867188 248.550781 343.867188 L 253.65625 345.777344 C 224.289063 346.132813 222.503906 361.816406 222.503906 361.816406 C 222.503906 361.816406 220.71875 346.132813 191.351563 345.777344 L 196.460938 343.867188 C 196.460938 343.867188 163.519531 336.730469 163.519531 312.382813 L 163.519531 286.097656 C 163.519531 285.765625 163.539063 285.449219 163.558594 285.121094 C 164.433594 308.679688 196.460938 315.628906 196.460938 315.628906 L 191.351563 317.558594 C 220.71875 317.898438 222.503906 333.59375 222.503906 333.59375 C 222.503906 333.59375 224.289063 317.898438 253.65625 317.550781 L 248.550781 315.628906 C 248.550781 315.628906 280.589844 308.679688 281.453125 285.121094 M 402.890625 175.316406 C 402.925781 175.378906 402.980469 175.472656 403.070313 175.390625 C 403.070313 175.28125 402.984375 175.117188 403.121094 175.058594 C 403.277344 175.316406 403.554688 175.316406 403.660156 175.664063 C 403.355469 175.792969 402.65625 175.484375 402.890625 175.316406 M 331.335938 177.425781 C 331.734375 175.949219 332.121094 174.480469 332.488281 173.019531 C 333.300781 169.902344 333.566406 166.46875 334.570313 163.503906 C 336.210938 158.667969 339.316406 154.050781 341.925781 149.871094 C 344.601563 145.601563 347.269531 141.65625 350.304688 138.679688 C 351.738281 137.320313 353.046875 136.855469 354.828125 135.582031 C 356.332031 134.546875 357.433594 132.734375 358.789063 131.964844 C 359.679688 131.4375 360.679688 131.070313 361.746094 130.785156 C 359.320313 151.847656 346.152344 166.933594 331.335938 177.425781 M 277.3125 27.015625 C 277.234375 27.566406 276.234375 31.453125 275.878906 32.675781 C 275.53125 31.476563 276.6875 27.949219 277.144531 26.152344 C 277.582031 24.328125 277.539063 25.503906 277.3125 27.015625 M 253.652344 71.085938 C 252.902344 68.640625 254.433594 65.871094 254.828125 62.875 C 255.492188 57.792969 255.21875 52.179688 257.269531 48.140625 C 257.03125 55.753906 255.941406 64.960938 253.652344 71.085938 M 192.140625 62.875 C 192.539063 65.871094 194.066406 68.640625 193.324219 71.085938 C 191.027344 64.960938 189.9375 55.753906 189.703125 48.140625 C 191.761719 52.179688 191.480469 57.792969 192.140625 62.875 M 171.101563 32.675781 C 170.734375 31.453125 169.738281 27.566406 169.652344 27.015625 C 169.429688 25.503906 169.394531 24.328125 169.828125 26.152344 C 170.285156 27.949219 171.445313 31.476563 171.101563 32.675781 M 83.28125 130.796875 C 84.328125 131.078125 85.324219 131.441406 86.214844 131.964844 C 87.558594 132.734375 88.660156 134.546875 90.164063 135.582031 C 91.953125 136.855469 93.253906 137.320313 94.695313 138.679688 C 97.722656 141.65625 100.390625 145.601563 103.066406 149.871094 C 105.675781 154.050781 108.777344 158.667969 110.425781 163.503906 C 111.421875 166.46875 111.691406 169.902344 112.5 173.019531 C 112.863281 174.46875 113.246094 175.925781 113.644531 177.386719 C 98.84375 166.902344 85.707031 151.828125 83.28125 130.796875 M 43.921875 175.664063 C 44.027344 175.316406 44.304688 175.316406 44.460938 175.058594 C 44.597656 175.117188 44.519531 175.28125 44.507813 175.390625 C 44.601563 175.472656 44.65625 175.378906 44.691406 175.316406 C 44.925781 175.484375 44.230469 175.792969 43.921875 175.664063 M 160.328125 69.105469 C 158.230469 64.5625 158.175781 57.484375 157.328125 51.398438 C 157.660156 51.367188 157.96875 51.40625 157.921875 51.890625 C 158.589844 54.367188 159.339844 57.390625 159.972656 60.542969 C 160.554688 63.382813 162.292969 67.066406 160.328125 69.105469 M 155.578125 40.480469 C 153.96875 36.636719 154.160156 27.84375 154.589844 26.140625 C 154.746094 25.382813 154.453125 24.425781 154.8125 25.851563 C 156.039063 30.742188 155.472656 36.296875 155.578125 40.480469 M 286.996094 60.542969 C 287.625 57.390625 288.382813 54.367188 289.042969 51.890625 C 289.003906 51.40625 289.3125 51.367188 289.644531 51.398438 C 288.796875 57.484375 288.738281 64.5625 286.636719 69.105469 C 284.6875 67.066406 286.425781 63.382813 286.996094 60.542969 M 292.160156 25.851563 C 292.519531 24.425781 292.226563 25.382813 292.390625 26.140625 C 292.8125 27.84375 292.996094 36.636719 291.402344 40.480469 C 291.496094 36.296875 290.9375 30.742188 292.160156 25.851563 M 447.058594 162.875 C 445.0625 158.617188 438.246094 161.144531 433.722656 161.578125 C 430.488281 161.890625 426.675781 161.640625 423.550781 161.980469 C 418.390625 162.589844 412.523438 165.597656 408.5625 163.539063 C 406.628906 158.386719 410.488281 156.148438 413.605469 153.09375 C 415.519531 151.238281 417.886719 148.871094 419.570313 147.269531 C 421.496094 145.417969 423.648438 143.839844 426.292969 141.777344 C 428.277344 140.207031 432.078125 137.800781 431.621094 135.519531 C 431.046875 132.707031 428.433594 132.25 426.1875 132.910156 C 423.117188 133.820313 420.328125 136.617188 417.738281 138.414063 C 414.953125 140.328125 411.796875 142.058594 409.523438 144.113281 C 404.925781 148.308594 400.527344 152.964844 394.242188 156.101563 C 392.269531 157.074219 390.1875 157.445313 388.179688 158.171875 C 385.023438 159.308594 381.855469 161.546875 380.066406 162.894531 C 379.496094 163.320313 378.722656 163.585938 378.078125 163.949219 C 376.535156 164.800781 374.964844 165.605469 372.867188 166.65625 C 369.394531 168.378906 366.101563 171.167969 362.238281 173.101563 C 362.230469 173.105469 362.222656 173.113281 362.214844 173.117188 L 362.214844 130.671875 C 365.386719 129.902344 369.039063 129.757813 372.121094 128.382813 C 376.054688 126.636719 380.34375 123.730469 384.394531 121.253906 C 388.089844 118.976563 391.730469 115.617188 395.960938 112.671875 C 399.0625 110.523438 405.757813 106.925781 407.175781 102.558594 C 408.3125 99.007813 405.089844 98.125 405.667969 94.085938 C 406.054688 91.496094 408.011719 89.558594 408.023438 87.472656 C 408.027344 84.507813 404.394531 82.277344 401.351563 82.347656 C 400.203125 82.378906 398.636719 83.617188 398.132813 82.742188 C 399.300781 79.070313 399.539063 74.746094 399.28125 72.226563 C 399.820313 73.242188 400.285156 70.371094 400.363281 69.976563 C 400.789063 67.410156 400.429688 63.375 398.328125 62.078125 C 396.453125 60.945313 391.746094 61.289063 389.257813 61.347656 C 385.753906 61.433594 382.921875 61.328125 380.34375 61.492188 C 374.144531 61.933594 368.226563 63.449219 363.1875 63.261719 C 360.644531 63.152344 360.695313 62.550781 358.820313 62.535156 C 356.800781 62.554688 351.941406 64.65625 350.632813 66.375 C 347.269531 70.808594 346.398438 77.078125 344.285156 81.324219 C 342.117188 85.773438 339.9375 90.601563 337.621094 94.707031 C 336.558594 96.601563 334.871094 98.234375 333.8125 100.363281 C 332.542969 102.914063 331.933594 106.097656 330.496094 108.457031 C 330.511719 108.429688 330.027344 111.0625 329.058594 109.703125 C 330.464844 109.773438 328.675781 109.601563 329.488281 108.800781 C 326.355469 112.511719 322.675781 116.054688 319.527344 120.367188 C 316.070313 125.078125 313.65625 130.785156 310.65625 136.015625 C 304.851563 146.128906 298.253906 155.558594 291.726563 164.03125 C 287.09375 170.042969 282.503906 176.183594 277.933594 182.289063 C 278.449219 179.980469 278.988281 177.628906 279.53125 175.1875 C 281.460938 166.636719 282.269531 157.351563 286.300781 151.214844 C 288.09375 148.527344 291.433594 146.707031 293.769531 143.722656 C 298.230469 138.070313 302.4375 132.054688 306.785156 126.25 C 309.109375 123.152344 312.457031 120.652344 313.5625 117.554688 C 314.796875 114.054688 314.289063 110.097656 314.507813 106.265625 C 314.980469 98.464844 318.515625 92.765625 320.027344 86.050781 C 320.828125 82.535156 321.136719 78.699219 322.296875 75.464844 C 323.601563 71.847656 328.453125 66.242188 322.121094 64.34375 C 312.972656 61.59375 308.050781 73.824219 304.976563 79.128906 C 301.828125 70.28125 307.570313 55.460938 307.078125 44.394531 C 306.894531 40.734375 306.210938 37.0625 306.292969 33.765625 C 306.46875 25.476563 308.789063 10.394531 300.058594 9.21875 C 296.507813 8.730469 295.03125 11.375 293.5625 12.953125 C 294.714844 6.203125 293.652344 1.292969 288.558594 0.203125 C 282.199219 -1.164063 280.242188 4.628906 279.539063 11.714844 C 278.550781 11.828125 278.441406 9.917969 277.59375 8.996094 C 275.421875 6.566406 270.609375 6.21875 268.203125 8.808594 C 265.609375 11.582031 264.710938 19.960938 263.523438 26.0625 C 262.179688 33.179688 261.585938 39.953125 259.179688 43.347656 C 259.488281 38.113281 261.414063 32.007813 256.066406 31.085938 C 251.328125 30.273438 249.203125 36.050781 247.230469 40.683594 C 245.222656 45.425781 244.078125 51.378906 242.824219 55.734375 C 241.296875 61.199219 240.28125 66.535156 239.175781 71.714844 C 238.015625 76.96875 236.140625 81.976563 234.996094 87.066406 C 232.363281 98.75 231.492188 111.457031 232.691406 120.96875 C 233.972656 131.09375 236.015625 141.394531 234.550781 152.535156 C 233.496094 160.621094 230.105469 168.742188 228.046875 176.535156 C 226.5 182.414063 224.980469 188.351563 223.488281 194.3125 C 221.988281 188.351563 220.476563 182.414063 218.925781 176.535156 C 216.878906 168.742188 213.480469 160.621094 212.421875 152.535156 C 210.960938 141.394531 213.007813 131.09375 214.277344 120.96875 C 215.484375 111.457031 214.609375 98.75 211.980469 87.066406 C 210.832031 81.976563 208.96875 76.96875 207.796875 71.714844 C 206.695313 66.535156 205.675781 61.199219 204.152344 55.734375 C 202.894531 51.378906 201.746094 45.425781 199.738281 40.683594 C 197.765625 36.050781 195.644531 30.273438 190.902344 31.085938 C 185.5625 32.007813 187.476563 38.113281 187.792969 43.347656 C 185.394531 39.953125 184.800781 33.179688 183.445313 26.0625 C 182.269531 19.960938 181.359375 11.582031 178.773438 8.808594 C 176.367188 6.21875 171.550781 6.566406 169.378906 8.996094 C 168.535156 9.917969 168.421875 11.828125 167.4375 11.714844 C 166.738281 4.628906 164.777344 -1.164063 158.414063 0.203125 C 153.316406 1.292969 152.257813 6.203125 153.414063 12.953125 C 151.9375 11.375 150.464844 8.730469 146.90625 9.21875 C 138.1875 10.394531 140.507813 25.476563 140.683594 33.765625 C 140.761719 37.0625 140.066406 40.734375 139.894531 44.394531 C 139.394531 55.460938 145.144531 70.28125 142.007813 79.128906 C 138.914063 73.824219 133.996094 61.59375 124.863281 64.34375 C 118.519531 66.242188 123.375 71.847656 124.675781 75.464844 C 125.84375 78.699219 126.140625 82.535156 126.953125 86.050781 C 128.460938 92.765625 131.980469 98.464844 132.46875 106.265625 C 132.6875 110.097656 132.175781 114.054688 133.414063 117.554688 C 134.515625 120.652344 137.863281 123.152344 140.1875 126.25 C 144.535156 132.054688 148.738281 138.070313 153.199219 143.722656 C 155.542969 146.707031 158.878906 148.527344 160.675781 151.214844 C 164.703125 157.351563 165.515625 166.636719 167.441406 175.1875 C 168.289063 178.960938 169.105469 182.527344 169.863281 186.027344 C 164.367188 178.699219 158.847656 171.269531 153.265625 164.03125 C 146.730469 155.558594 140.144531 146.128906 134.332031 136.015625 C 131.320313 130.785156 128.925781 125.078125 125.460938 120.367188 C 122.308594 116.054688 118.640625 112.511719 115.5 108.800781 C 116.304688 109.601563 114.535156 109.773438 115.933594 109.703125 C 114.96875 111.0625 114.492188 108.429688 114.496094 108.457031 C 113.050781 106.097656 112.445313 102.914063 111.175781 100.363281 C 110.113281 98.234375 108.429688 96.601563 107.359375 94.707031 C 105.054688 90.601563 102.871094 85.773438 100.699219 81.324219 C 98.597656 77.078125 97.722656 70.808594 94.359375 66.375 C 93.046875 64.65625 88.191406 62.554688 86.179688 62.535156 C 84.28125 62.550781 84.339844 63.152344 81.804688 63.261719 C 76.769531 63.449219 70.855469 61.933594 64.652344 61.492188 C 62.070313 61.328125 59.238281 61.433594 55.726563 61.347656 C 53.246094 61.289063 48.539063 60.945313 46.660156 62.078125 C 44.558594 63.375 44.210938 67.410156 44.625 69.976563 C 44.707031 70.371094 45.160156 73.242188 45.714844 72.226563 C 45.457031 74.746094 45.691406 79.070313 46.863281 82.742188 C 46.351563 83.617188 44.789063 82.378906 43.648438 82.347656 C 40.59375 82.277344 36.957031 84.507813 36.96875 87.472656 C 36.976563 89.558594 38.929688 91.496094 39.316406 94.085938 C 39.898438 98.125 36.679688 99.007813 37.808594 102.558594 C 39.246094 106.925781 45.925781 110.523438 49.039063 112.671875 C 53.261719 115.617188 56.902344 118.976563 60.601563 121.253906 C 64.652344 123.730469 68.941406 126.636719 72.875 128.382813 C 75.96875 129.757813 79.628906 129.902344 82.808594 130.683594 L 82.808594 171.683594 C 79.992188 169.964844 77.402344 167.992188 74.71875 166.65625 C 72.613281 165.605469 71.046875 164.800781 69.503906 163.949219 C 68.863281 163.585938 68.085938 163.320313 67.519531 162.894531 C 65.726563 161.546875 62.558594 159.308594 59.402344 158.171875 C 57.394531 157.445313 55.3125 157.074219 53.34375 156.101563 C 47.050781 152.964844 42.664063 148.308594 38.058594 144.113281 C 35.785156 142.058594 32.621094 140.328125 29.84375 138.414063 C 27.257813 136.617188 24.46875 133.820313 21.394531 132.910156 C 19.15625 132.25 16.542969 132.707031 15.960938 135.519531 C 15.503906 137.800781 19.300781 140.207031 21.300781 141.777344 C 23.929688 143.839844 26.085938 145.417969 28.007813 147.269531 C 29.703125 148.871094 32.0625 151.238281 33.972656 153.09375 C 37.085938 156.148438 40.953125 158.386719 39.023438 163.539063 C 35.058594 165.597656 29.199219 162.589844 24.03125 161.980469 C 20.914063 161.640625 17.082031 161.890625 13.855469 161.578125 C 9.324219 161.144531 2.519531 158.617188 0.523438 162.875 C -2.335938 168.972656 7.425781 168.601563 10.992188 168.945313 C 18.101563 169.636719 24.664063 171.382813 31.519531 171.890625 C 34.414063 172.09375 39 171.738281 40.273438 175.261719 C 39.640625 176.609375 38.398438 177.699219 38.109375 179.402344 C 37.59375 182.320313 39.503906 185.324219 43.582031 185.230469 C 44.199219 186.296875 44.566406 188.636719 45.398438 189.367188 C 46.226563 190.101563 45.152344 188.980469 46.042969 189.316406 C 46.433594 190.117188 46.804688 191.585938 47.714844 192.136719 C 48.457031 192.59375 49.863281 192.570313 51.042969 193.035156 C 51.804688 193.34375 52.476563 194.050781 53.113281 194.277344 C 53.636719 194.464844 54.253906 194.328125 54.957031 194.480469 C 57.761719 195.089844 61.359375 196.253906 63.773438 195.5 C 67.453125 196.671875 71.46875 196.304688 74.996094 197.402344 C 77.808594 198.277344 80.695313 200.664063 83.328125 202.371094 C 83.566406 202.527344 83.8125 202.691406 84.054688 202.847656 C 94.019531 250.71875 160.828125 265.195313 160.828125 265.195313 L 148.734375 269.734375 C 154.03125 269.796875 158.953125 270.070313 163.519531 270.523438 L 163.519531 272.65625 C 163.519531 297.015625 196.460938 304.148438 196.460938 304.148438 L 191.351563 306.054688 C 220.71875 306.414063 222.503906 322.097656 222.503906 322.097656 C 222.503906 322.097656 224.289063 306.414063 253.65625 306.054688 L 248.550781 304.148438 C 248.550781 304.148438 281.484375 297.015625 281.484375 272.65625 L 281.484375 270.515625 C 286.0625 270.0625 290.980469 269.78125 296.289063 269.722656 L 284.191406 265.195313 C 284.191406 265.195313 349.144531 251.117188 360.515625 204.839844 C 361.757813 204.007813 363.007813 203.183594 364.261719 202.371094 C 366.886719 200.664063 369.773438 198.277344 372.585938 197.402344 C 376.113281 196.304688 380.132813 196.671875 383.800781 195.5 C 386.226563 196.253906 389.816406 195.089844 392.625 194.480469 C 393.328125 194.328125 393.941406 194.464844 394.464844 194.277344 C 395.097656 194.050781 395.777344 193.34375 396.539063 193.035156 C 397.722656 192.570313 399.128906 192.59375 399.867188 192.136719 C 400.773438 191.585938 401.140625 190.117188 401.539063 189.316406 C 402.429688 188.980469 401.355469 190.101563 402.183594 189.367188 C 403.015625 188.636719 403.378906 186.296875 403.996094 185.230469 C 408.078125 185.324219 409.984375 182.320313 409.472656 179.402344 C 409.179688 177.699219 407.941406 176.609375 407.308594 175.261719 C 408.574219 171.738281 413.175781 172.09375 416.066406 171.890625 C 422.917969 171.382813 429.476563 169.636719 436.589844 168.945313 C 440.148438 168.601563 449.914063 168.972656 447.058594 162.875 "/>
    </g>
    <g clip-path="url(#clip2)" clip-rule="nonzero"/>
    <g clip-path="url(#clip3)" clip-rule="nonzero"/>
    <g clip-path="url(#clip4)" clip-rule="nonzero"/>
    <g clip-path="url(#clip5)" clip-rule="nonzero"/>
    <g clip-path="url(#clip6)" clip-rule="nonzero"/>
    <g clip-path="url(#clip7)" clip-rule="nonzero"/>
    <g clip-path="url(#clip8)" clip-rule="nonzero"/>
    <g clip-path="url(#clip9)" clip-rule="nonzero"/>
  </g>
</svg>